<svg xmlns="http://www.w3.org/2000/svg" viewBox="0 0 373.97 170.91" width="373.97" height="170.91" role="img" aria-label="K-L0: Today, sketched to scale on a 780 by 340 pixel screen"><style>.bezel{fill:#1b231e}.felt{fill:#0f4d0e}.chrome{fill:#0a2616;fill-opacity:.94}.chrome-label{fill:#cfe3d4;font:600 8px "Segoe UI",system-ui,sans-serif;letter-spacing:.03em}.c-back{fill:#2f5fd0;stroke:#183a8f;stroke-width:.5}.c-face{fill:#fbfbf7;stroke:#7f8a82;stroke-width:.4}.c-slot{fill:none;stroke:#fff;stroke-opacity:.42;stroke-width:.7}.ix-red{fill:#d0202f}.ix-black{fill:#1a1a1a}.overflow{fill:#ff5a4a}</style><defs><clipPath id="K-L0-screen"><rect x="7" y="7" width="359.97" height="156.91" rx="6"/></clipPath></defs><rect class="bezel" x="0" y="0" width="373.97" height="170.91" rx="12"/><rect class="felt" x="7" y="7" width="359.97" height="156.91" rx="6"/><g clip-path="url(#K-L0-screen)"><rect class="c-back" x="65.66" y="46.31" width="30.49" height="43.27" rx="1.97"/><rect class="c-face" x="100.93" y="46.31" width="30.49" height="43.27" rx="1.97"/><rect class="ix-red" x="102.89" y="47.43" width="9.84" height="5.06" rx="0.6"/><rect class="c-face" x="108.65" y="46.31" width="30.49" height="43.27" rx="1.97"/><rect class="ix-black" x="110.62" y="47.43" width="9.84" height="5.06" rx="0.6"/><rect class="c-face" x="116.38" y="46.31" width="30.49" height="43.27" rx="1.97"/><rect class="ix-red" x="118.35" y="47.43" width="9.84" height="5.06" rx="0.6"/><rect class="c-face" x="171.46" y="46.31" width="30.49" height="43.27" rx="1.97"/><rect class="ix-black" x="173.43" y="47.43" width="9.84" height="5.06" rx="0.6"/><rect class="c-face" x="206.73" y="46.31" width="30.49" height="43.27" rx="1.97"/><rect class="ix-red" x="208.69" y="47.43" width="9.84" height="5.06" rx="0.6"/><rect class="c-slot" x="241.99" y="46.31" width="30.49" height="43.27" rx="1.97"/><rect class="c-slot" x="277.26" y="46.31" width="30.49" height="43.27" rx="1.97"/><rect class="c-face" x="65.66" y="95.91" width="30.49" height="43.27" rx="1.97"/><rect class="ix-red" x="67.63" y="97.03" width="9.84" height="5.06" rx="0.6"/><rect class="c-face" x="65.66" y="102.23" width="30.49" height="43.27" rx="1.97"/><rect class="ix-black" x="67.63" y="103.35" width="9.84" height="5.06" rx="0.6"/><rect class="c-face" x="65.66" y="108.55" width="30.49" height="43.27" rx="1.97"/><rect class="ix-red" x="67.63" y="109.68" width="9.84" height="5.06" rx="0.6"/><rect class="c-face" x="65.66" y="114.87" width="30.49" height="43.27" rx="1.97"/><rect class="ix-black" x="67.63" y="116" width="9.84" height="5.06" rx="0.6"/><rect class="c-face" x="100.93" y="95.91" width="30.49" height="43.27" rx="1.97"/><rect class="ix-black" x="102.89" y="97.03" width="9.84" height="5.06" rx="0.6"/><rect class="c-face" x="100.93" y="102.23" width="30.49" height="43.27" rx="1.97"/><rect class="ix-red" x="102.89" y="103.35" width="9.84" height="5.06" rx="0.6"/><rect class="c-back" x="136.19" y="95.91" width="30.49" height="43.27" rx="1.97"/><rect class="c-face" x="136.19" y="98.44" width="30.49" height="43.27" rx="1.97"/><rect class="ix-red" x="138.16" y="99.56" width="9.84" height="5.06" rx="0.6"/><rect class="c-back" x="171.46" y="95.91" width="30.49" height="43.27" rx="1.97"/><rect class="c-back" x="171.46" y="98.44" width="30.49" height="43.27" rx="1.97"/><rect class="c-back" x="171.46" y="100.96" width="30.49" height="43.27" rx="1.97"/><rect class="c-face" x="171.46" y="103.49" width="30.49" height="43.27" rx="1.97"/><rect class="ix-black" x="173.43" y="104.62" width="9.84" height="5.06" rx="0.6"/><rect class="c-face" x="171.46" y="109.82" width="30.49" height="43.27" rx="1.97"/><rect class="ix-red" x="173.43" y="110.94" width="9.84" height="5.06" rx="0.6"/><rect class="c-face" x="171.46" y="116.14" width="30.49" height="43.27" rx="1.97"/><rect class="ix-black" x="173.43" y="117.26" width="9.84" height="5.06" rx="0.6"/><rect class="c-face" x="171.46" y="122.46" width="30.49" height="43.27" rx="1.97"/><rect class="ix-red" x="173.43" y="123.59" width="9.84" height="5.06" rx="0.6"/><rect class="c-face" x="171.46" y="128.78" width="30.49" height="43.27" rx="1.97"/><rect class="ix-black" x="173.43" y="129.91" width="9.84" height="5.06" rx="0.6"/><rect class="c-back" x="206.73" y="95.91" width="30.49" height="43.27" rx="1.97"/><rect class="c-back" x="206.73" y="98.44" width="30.49" height="43.27" rx="1.97"/><rect class="c-face" x="206.73" y="100.96" width="30.49" height="43.27" rx="1.97"/><rect class="ix-red" x="208.69" y="102.09" width="9.84" height="5.06" rx="0.6"/><rect class="c-face" x="206.73" y="107.29" width="30.49" height="43.27" rx="1.97"/><rect class="ix-black" x="208.69" y="108.41" width="9.84" height="5.06" rx="0.6"/><rect class="c-face" x="206.73" y="113.61" width="30.49" height="43.27" rx="1.97"/><rect class="ix-red" x="208.69" y="114.73" width="9.84" height="5.06" rx="0.6"/><rect class="c-face" x="206.73" y="119.93" width="30.49" height="43.27" rx="1.97"/><rect class="ix-black" x="208.69" y="121.06" width="9.84" height="5.06" rx="0.6"/><rect class="c-face" x="206.73" y="126.26" width="30.49" height="43.27" rx="1.97"/><rect class="ix-red" x="208.69" y="127.38" width="9.84" height="5.06" rx="0.6"/><rect class="c-face" x="206.73" y="132.58" width="30.49" height="43.27" rx="1.97"/><rect class="ix-black" x="208.69" y="133.7" width="9.84" height="5.06" rx="0.6"/><rect class="c-face" x="206.73" y="138.9" width="30.49" height="43.27" rx="1.97"/><rect class="ix-red" x="208.69" y="140.02" width="9.84" height="5.06" rx="0.6"/><rect class="c-back" x="241.99" y="95.91" width="30.49" height="43.27" rx="1.97"/><rect class="c-back" x="241.99" y="98.44" width="30.49" height="43.27" rx="1.97"/><rect class="c-back" x="241.99" y="100.96" width="30.49" height="43.27" rx="1.97"/><rect class="c-back" x="241.99" y="103.49" width="30.49" height="43.27" rx="1.97"/><rect class="c-back" x="241.99" y="106.02" width="30.49" height="43.27" rx="1.97"/><rect class="c-face" x="241.99" y="108.55" width="30.49" height="43.27" rx="1.97"/><rect class="ix-black" x="243.96" y="109.68" width="9.84" height="5.06" rx="0.6"/><rect class="c-face" x="241.99" y="114.87" width="30.49" height="43.27" rx="1.97"/><rect class="ix-red" x="243.96" y="116" width="9.84" height="5.06" rx="0.6"/><rect class="c-back" x="277.26" y="95.91" width="30.49" height="43.27" rx="1.97"/><rect class="c-back" x="277.26" y="98.44" width="30.49" height="43.27" rx="1.97"/><rect class="c-back" x="277.26" y="100.96" width="30.49" height="43.27" rx="1.97"/><rect class="c-back" x="277.26" y="103.49" width="30.49" height="43.27" rx="1.97"/><rect class="c-back" x="277.26" y="106.02" width="30.49" height="43.27" rx="1.97"/><rect class="c-back" x="277.26" y="108.55" width="30.49" height="43.27" rx="1.97"/><rect class="c-face" x="277.26" y="111.08" width="30.49" height="43.27" rx="1.97"/><rect class="ix-red" x="279.22" y="112.21" width="9.84" height="5.06" rx="0.6"/><rect class="c-face" x="277.26" y="117.4" width="30.49" height="43.27" rx="1.97"/><rect class="ix-black" x="279.22" y="118.53" width="9.84" height="5.06" rx="0.6"/><rect class="c-face" x="277.26" y="123.73" width="30.49" height="43.27" rx="1.97"/><rect class="ix-red" x="279.22" y="124.85" width="9.84" height="5.06" rx="0.6"/><rect class="c-face" x="277.26" y="130.05" width="30.49" height="43.27" rx="1.97"/><rect class="ix-black" x="279.22" y="131.17" width="9.84" height="5.06" rx="0.6"/><rect class="c-face" x="277.26" y="136.37" width="30.49" height="43.27" rx="1.97"/><rect class="ix-red" x="279.22" y="137.5" width="9.84" height="5.06" rx="0.6"/><rect class="c-face" x="277.26" y="142.69" width="30.49" height="43.27" rx="1.97"/><rect class="ix-black" x="279.22" y="143.82" width="9.84" height="5.06" rx="0.6"/></g><path class="overflow" d="M180.7 156.91 L192.7 156.91 L186.7 163.41 Z"/><path class="overflow" d="M215.97 156.91 L227.97 156.91 L221.97 163.41 Z"/><path class="overflow" d="M286.5 156.91 L298.5 156.91 L292.5 163.41 Z"/><rect class="chrome" x="7" y="7" width="359.97" height="33.69"/><text class="chrome-label" x="186.99" y="26.84" text-anchor="middle">Header</text></svg>
