<svg xmlns="http://www.w3.org/2000/svg" viewBox="0 0 193.99 337.05" width="193.99" height="337.05" role="img" aria-label="K-P2: Piles in thumb reach, sketched to scale on a 390 by 700 pixel screen"><style>.bezel{fill:#1b231e}.felt{fill:#0f4d0e}.chrome{fill:#0a2616;fill-opacity:.94}.chrome-label{fill:#cfe3d4;font:600 8px "Segoe UI",system-ui,sans-serif;letter-spacing:.03em}.c-back{fill:#2f5fd0;stroke:#183a8f;stroke-width:.5}.c-face{fill:#fbfbf7;stroke:#7f8a82;stroke-width:.4}.c-slot{fill:none;stroke:#fff;stroke-opacity:.42;stroke-width:.7}.ix-red{fill:#d0202f}.ix-black{fill:#1a1a1a}.overflow{fill:#ff5a4a}</style><defs><clipPath id="K-P2-screen"><rect x="7" y="7" width="179.99" height="323.05" rx="6"/></clipPath></defs><rect class="bezel" x="0" y="0" width="193.99" height="337.05" rx="12"/><rect class="felt" x="7" y="7" width="179.99" height="323.05" rx="6"/><g clip-path="url(#K-P2-screen)"><rect class="c-face" x="7.68" y="267.94" width="24.67" height="35.02" rx="1.59"/><rect class="ix-black" x="9.27" y="268.85" width="7.96" height="4.09" rx="0.6"/><rect class="c-face" x="33.26" y="267.94" width="24.67" height="35.02" rx="1.59"/><rect class="ix-red" x="34.86" y="268.85" width="7.96" height="4.09" rx="0.6"/><rect class="c-slot" x="58.85" y="267.94" width="24.67" height="35.02" rx="1.59"/><rect class="c-slot" x="84.43" y="267.94" width="24.67" height="35.02" rx="1.59"/><rect class="c-face" x="135.59" y="267.94" width="24.67" height="35.02" rx="1.59"/><rect class="ix-red" x="137.18" y="268.85" width="7.96" height="4.09" rx="0.6"/><rect class="c-face" x="129.34" y="267.94" width="24.67" height="35.02" rx="1.59"/><rect class="ix-black" x="130.93" y="268.85" width="7.96" height="4.09" rx="0.6"/><rect class="c-face" x="123.09" y="267.94" width="24.67" height="35.02" rx="1.59"/><rect class="ix-red" x="124.68" y="268.85" width="7.96" height="4.09" rx="0.6"/><rect class="c-back" x="161.18" y="267.94" width="24.67" height="35.02" rx="1.59"/><rect class="c-face" x="7.68" y="26.14" width="24.67" height="35.02" rx="1.59"/><rect class="ix-red" x="9.27" y="27.05" width="7.96" height="4.09" rx="0.6"/><rect class="c-face" x="7.68" y="38.65" width="24.67" height="35.02" rx="1.59"/><rect class="ix-black" x="9.27" y="39.56" width="7.96" height="4.09" rx="0.6"/><rect class="c-face" x="7.68" y="51.16" width="24.67" height="35.02" rx="1.59"/><rect class="ix-red" x="9.27" y="52.07" width="7.96" height="4.09" rx="0.6"/><rect class="c-face" x="7.68" y="63.66" width="24.67" height="35.02" rx="1.59"/><rect class="ix-black" x="9.27" y="64.57" width="7.96" height="4.09" rx="0.6"/><rect class="c-face" x="33.26" y="26.14" width="24.67" height="35.02" rx="1.59"/><rect class="ix-black" x="34.86" y="27.05" width="7.96" height="4.09" rx="0.6"/><rect class="c-face" x="33.26" y="38.65" width="24.67" height="35.02" rx="1.59"/><rect class="ix-red" x="34.86" y="39.56" width="7.96" height="4.09" rx="0.6"/><rect class="c-back" x="58.85" y="26.14" width="24.67" height="35.02" rx="1.59"/><rect class="c-face" x="58.85" y="28.19" width="24.67" height="35.02" rx="1.59"/><rect class="ix-red" x="60.44" y="29.1" width="7.96" height="4.09" rx="0.6"/><rect class="c-back" x="84.43" y="26.14" width="24.67" height="35.02" rx="1.59"/><rect class="c-back" x="84.43" y="28.19" width="24.67" height="35.02" rx="1.59"/><rect class="c-back" x="84.43" y="30.24" width="24.67" height="35.02" rx="1.59"/><rect class="c-face" x="84.43" y="32.28" width="24.67" height="35.02" rx="1.59"/><rect class="ix-black" x="86.02" y="33.19" width="7.96" height="4.09" rx="0.6"/><rect class="c-face" x="84.43" y="44.79" width="24.67" height="35.02" rx="1.59"/><rect class="ix-red" x="86.02" y="45.7" width="7.96" height="4.09" rx="0.6"/><rect class="c-face" x="84.43" y="57.3" width="24.67" height="35.02" rx="1.59"/><rect class="ix-black" x="86.02" y="58.21" width="7.96" height="4.09" rx="0.6"/><rect class="c-face" x="84.43" y="69.8" width="24.67" height="35.02" rx="1.59"/><rect class="ix-red" x="86.02" y="70.71" width="7.96" height="4.09" rx="0.6"/><rect class="c-face" x="84.43" y="82.31" width="24.67" height="35.02" rx="1.59"/><rect class="ix-black" x="86.02" y="83.22" width="7.96" height="4.09" rx="0.6"/><rect class="c-back" x="110.01" y="26.14" width="24.67" height="35.02" rx="1.59"/><rect class="c-back" x="110.01" y="28.19" width="24.67" height="35.02" rx="1.59"/><rect class="c-face" x="110.01" y="30.24" width="24.67" height="35.02" rx="1.59"/><rect class="ix-red" x="111.6" y="31.14" width="7.96" height="4.09" rx="0.6"/><rect class="c-face" x="110.01" y="42.74" width="24.67" height="35.02" rx="1.59"/><rect class="ix-black" x="111.6" y="43.65" width="7.96" height="4.09" rx="0.6"/><rect class="c-face" x="110.01" y="55.25" width="24.67" height="35.02" rx="1.59"/><rect class="ix-red" x="111.6" y="56.16" width="7.96" height="4.09" rx="0.6"/><rect class="c-face" x="110.01" y="67.76" width="24.67" height="35.02" rx="1.59"/><rect class="ix-black" x="111.6" y="68.67" width="7.96" height="4.09" rx="0.6"/><rect class="c-face" x="110.01" y="80.26" width="24.67" height="35.02" rx="1.59"/><rect class="ix-red" x="111.6" y="81.17" width="7.96" height="4.09" rx="0.6"/><rect class="c-face" x="110.01" y="92.77" width="24.67" height="35.02" rx="1.59"/><rect class="ix-black" x="111.6" y="93.68" width="7.96" height="4.09" rx="0.6"/><rect class="c-face" x="110.01" y="105.28" width="24.67" height="35.02" rx="1.59"/><rect class="ix-red" x="111.6" y="106.19" width="7.96" height="4.09" rx="0.6"/><rect class="c-back" x="135.59" y="26.14" width="24.67" height="35.02" rx="1.59"/><rect class="c-back" x="135.59" y="28.19" width="24.67" height="35.02" rx="1.59"/><rect class="c-back" x="135.59" y="30.24" width="24.67" height="35.02" rx="1.59"/><rect class="c-back" x="135.59" y="32.28" width="24.67" height="35.02" rx="1.59"/><rect class="c-back" x="135.59" y="34.33" width="24.67" height="35.02" rx="1.59"/><rect class="c-face" x="135.59" y="36.38" width="24.67" height="35.02" rx="1.59"/><rect class="ix-black" x="137.18" y="37.28" width="7.96" height="4.09" rx="0.6"/><rect class="c-face" x="135.59" y="48.88" width="24.67" height="35.02" rx="1.59"/><rect class="ix-red" x="137.18" y="49.79" width="7.96" height="4.09" rx="0.6"/><rect class="c-back" x="161.18" y="26.14" width="24.67" height="35.02" rx="1.59"/><rect class="c-back" x="161.18" y="28.19" width="24.67" height="35.02" rx="1.59"/><rect class="c-back" x="161.18" y="30.24" width="24.67" height="35.02" rx="1.59"/><rect class="c-back" x="161.18" y="32.28" width="24.67" height="35.02" rx="1.59"/><rect class="c-back" x="161.18" y="34.33" width="24.67" height="35.02" rx="1.59"/><rect class="c-back" x="161.18" y="36.38" width="24.67" height="35.02" rx="1.59"/><rect class="c-face" x="161.18" y="38.42" width="24.67" height="35.02" rx="1.59"/><rect class="ix-red" x="162.77" y="39.33" width="7.96" height="4.09" rx="0.6"/><rect class="c-face" x="161.18" y="50.93" width="24.67" height="35.02" rx="1.59"/><rect class="ix-black" x="162.77" y="51.84" width="7.96" height="4.09" rx="0.6"/><rect class="c-face" x="161.18" y="63.44" width="24.67" height="35.02" rx="1.59"/><rect class="ix-red" x="162.77" y="64.34" width="7.96" height="4.09" rx="0.6"/><rect class="c-face" x="161.18" y="75.94" width="24.67" height="35.02" rx="1.59"/><rect class="ix-black" x="162.77" y="76.85" width="7.96" height="4.09" rx="0.6"/><rect class="c-face" x="161.18" y="88.45" width="24.67" height="35.02" rx="1.59"/><rect class="ix-red" x="162.77" y="89.36" width="7.96" height="4.09" rx="0.6"/><rect class="c-face" x="161.18" y="100.96" width="24.67" height="35.02" rx="1.59"/><rect class="ix-black" x="162.77" y="101.87" width="7.96" height="4.09" rx="0.6"/></g><rect class="chrome" x="7" y="7" width="179.99" height="18.46"/><text class="chrome-label" x="96.99" y="19.23" text-anchor="middle">Score · Time · Moves</text><rect class="chrome" x="7" y="304.21" width="179.99" height="25.84"/><text class="chrome-label" x="96.99" y="320.13" text-anchor="middle">Undo · Hint · New · Menu</text></svg>
