<svg xmlns="http://www.w3.org/2000/svg" viewBox="0 0 193.99 337.05" width="193.99" height="337.05" role="img" aria-label="S-P1: Classic, columns fan to fit, sketched to scale on a 390 by 700 pixel screen"><style>.bezel{fill:#1b231e}.felt{fill:#0f4d0e}.chrome{fill:#0a2616;fill-opacity:.94}.chrome-label{fill:#cfe3d4;font:600 8px "Segoe UI",system-ui,sans-serif;letter-spacing:.03em}.c-back{fill:#2f5fd0;stroke:#183a8f;stroke-width:.5}.c-face{fill:#fbfbf7;stroke:#7f8a82;stroke-width:.4}.c-slot{fill:none;stroke:#fff;stroke-opacity:.42;stroke-width:.7}.ix-red{fill:#d0202f}.ix-black{fill:#1a1a1a}.overflow{fill:#ff5a4a}</style><defs><clipPath id="S-P1-screen"><rect x="7" y="7" width="179.99" height="323.05" rx="6"/></clipPath></defs><rect class="bezel" x="0" y="0" width="193.99" height="337.05" rx="12"/><rect class="felt" x="7" y="7" width="179.99" height="323.05" rx="6"/><g clip-path="url(#S-P1-screen)"><rect class="c-back" x="7.32" y="35.17" width="17.4" height="24.69" rx="1.12"/><rect class="c-back" x="7.32" y="35.17" width="17.4" height="24.69" rx="1.12"/><rect class="c-back" x="7.32" y="35.17" width="17.4" height="24.69" rx="1.12"/><rect class="c-face" x="43.24" y="35.17" width="17.4" height="24.69" rx="1.12"/><rect class="ix-black" x="44.36" y="35.81" width="5.61" height="2.89" rx="0.6"/><rect class="c-face" x="61.2" y="35.17" width="17.4" height="24.69" rx="1.12"/><rect class="ix-red" x="62.32" y="35.81" width="5.61" height="2.89" rx="0.6"/><rect class="c-slot" x="79.15" y="35.17" width="17.4" height="24.69" rx="1.12"/><rect class="c-slot" x="97.11" y="35.17" width="17.4" height="24.69" rx="1.12"/><rect class="c-slot" x="115.07" y="35.17" width="17.4" height="24.69" rx="1.12"/><rect class="c-slot" x="133.03" y="35.17" width="17.4" height="24.69" rx="1.12"/><rect class="c-slot" x="150.99" y="35.17" width="17.4" height="24.69" rx="1.12"/><rect class="c-slot" x="168.95" y="35.17" width="17.4" height="24.69" rx="1.12"/><rect class="c-back" x="7.32" y="61.07" width="17.4" height="24.69" rx="1.12"/><rect class="c-back" x="7.32" y="62.51" width="17.4" height="24.69" rx="1.12"/><rect class="c-back" x="7.32" y="63.95" width="17.4" height="24.69" rx="1.12"/><rect class="c-back" x="7.32" y="65.4" width="17.4" height="24.69" rx="1.12"/><rect class="c-face" x="7.32" y="66.84" width="17.4" height="24.69" rx="1.12"/><rect class="ix-red" x="8.44" y="67.48" width="5.61" height="2.89" rx="0.6"/><rect class="c-face" x="7.32" y="75.66" width="17.4" height="24.69" rx="1.12"/><rect class="ix-black" x="8.44" y="76.3" width="5.61" height="2.89" rx="0.6"/><rect class="c-face" x="7.32" y="84.48" width="17.4" height="24.69" rx="1.12"/><rect class="ix-red" x="8.44" y="85.12" width="5.61" height="2.89" rx="0.6"/><rect class="c-face" x="7.32" y="93.3" width="17.4" height="24.69" rx="1.12"/><rect class="ix-black" x="8.44" y="93.94" width="5.61" height="2.89" rx="0.6"/><rect class="c-face" x="7.32" y="102.11" width="17.4" height="24.69" rx="1.12"/><rect class="ix-red" x="8.44" y="102.76" width="5.61" height="2.89" rx="0.6"/><rect class="c-face" x="7.32" y="110.93" width="17.4" height="24.69" rx="1.12"/><rect class="ix-black" x="8.44" y="111.57" width="5.61" height="2.89" rx="0.6"/><rect class="c-face" x="7.32" y="119.75" width="17.4" height="24.69" rx="1.12"/><rect class="ix-red" x="8.44" y="120.39" width="5.61" height="2.89" rx="0.6"/><rect class="c-face" x="7.32" y="128.57" width="17.4" height="24.69" rx="1.12"/><rect class="ix-black" x="8.44" y="129.21" width="5.61" height="2.89" rx="0.6"/><rect class="c-back" x="25.28" y="61.07" width="17.4" height="24.69" rx="1.12"/><rect class="c-back" x="25.28" y="62.51" width="17.4" height="24.69" rx="1.12"/><rect class="c-back" x="25.28" y="63.95" width="17.4" height="24.69" rx="1.12"/><rect class="c-back" x="25.28" y="65.4" width="17.4" height="24.69" rx="1.12"/><rect class="c-back" x="25.28" y="66.84" width="17.4" height="24.69" rx="1.12"/><rect class="c-face" x="25.28" y="68.28" width="17.4" height="24.69" rx="1.12"/><rect class="ix-black" x="26.4" y="68.92" width="5.61" height="2.89" rx="0.6"/><rect class="c-face" x="25.28" y="77.1" width="17.4" height="24.69" rx="1.12"/><rect class="ix-red" x="26.4" y="77.74" width="5.61" height="2.89" rx="0.6"/><rect class="c-face" x="25.28" y="85.92" width="17.4" height="24.69" rx="1.12"/><rect class="ix-black" x="26.4" y="86.56" width="5.61" height="2.89" rx="0.6"/><rect class="c-back" x="43.24" y="61.07" width="17.4" height="24.69" rx="1.12"/><rect class="c-back" x="43.24" y="62.51" width="17.4" height="24.69" rx="1.12"/><rect class="c-back" x="43.24" y="63.95" width="17.4" height="24.69" rx="1.12"/><rect class="c-face" x="43.24" y="65.4" width="17.4" height="24.69" rx="1.12"/><rect class="ix-red" x="44.36" y="66.04" width="5.61" height="2.89" rx="0.6"/><rect class="c-face" x="43.24" y="74.21" width="17.4" height="24.69" rx="1.12"/><rect class="ix-black" x="44.36" y="74.86" width="5.61" height="2.89" rx="0.6"/><rect class="c-face" x="43.24" y="83.03" width="17.4" height="24.69" rx="1.12"/><rect class="ix-red" x="44.36" y="83.67" width="5.61" height="2.89" rx="0.6"/><rect class="c-face" x="43.24" y="91.85" width="17.4" height="24.69" rx="1.12"/><rect class="ix-black" x="44.36" y="92.49" width="5.61" height="2.89" rx="0.6"/><rect class="c-face" x="43.24" y="100.67" width="17.4" height="24.69" rx="1.12"/><rect class="ix-red" x="44.36" y="101.31" width="5.61" height="2.89" rx="0.6"/><rect class="c-face" x="43.24" y="109.49" width="17.4" height="24.69" rx="1.12"/><rect class="ix-black" x="44.36" y="110.13" width="5.61" height="2.89" rx="0.6"/><rect class="c-face" x="43.24" y="118.31" width="17.4" height="24.69" rx="1.12"/><rect class="ix-red" x="44.36" y="118.95" width="5.61" height="2.89" rx="0.6"/><rect class="c-face" x="43.24" y="127.13" width="17.4" height="24.69" rx="1.12"/><rect class="ix-black" x="44.36" y="127.77" width="5.61" height="2.89" rx="0.6"/><rect class="c-face" x="43.24" y="135.95" width="17.4" height="24.69" rx="1.12"/><rect class="ix-red" x="44.36" y="136.59" width="5.61" height="2.89" rx="0.6"/><rect class="c-face" x="43.24" y="144.77" width="17.4" height="24.69" rx="1.12"/><rect class="ix-black" x="44.36" y="145.41" width="5.61" height="2.89" rx="0.6"/><rect class="c-face" x="43.24" y="153.58" width="17.4" height="24.69" rx="1.12"/><rect class="ix-red" x="44.36" y="154.23" width="5.61" height="2.89" rx="0.6"/><rect class="c-face" x="43.24" y="162.4" width="17.4" height="24.69" rx="1.12"/><rect class="ix-black" x="44.36" y="163.04" width="5.61" height="2.89" rx="0.6"/><rect class="c-back" x="61.2" y="61.07" width="17.4" height="24.69" rx="1.12"/><rect class="c-back" x="61.2" y="62.51" width="17.4" height="24.69" rx="1.12"/><rect class="c-back" x="61.2" y="63.95" width="17.4" height="24.69" rx="1.12"/><rect class="c-back" x="61.2" y="65.4" width="17.4" height="24.69" rx="1.12"/><rect class="c-back" x="61.2" y="66.84" width="17.4" height="24.69" rx="1.12"/><rect class="c-face" x="61.2" y="68.28" width="17.4" height="24.69" rx="1.12"/><rect class="ix-black" x="62.32" y="68.92" width="5.61" height="2.89" rx="0.6"/><rect class="c-face" x="61.2" y="77.1" width="17.4" height="24.69" rx="1.12"/><rect class="ix-red" x="62.32" y="77.74" width="5.61" height="2.89" rx="0.6"/><rect class="c-back" x="79.15" y="61.07" width="17.4" height="24.69" rx="1.12"/><rect class="c-back" x="79.15" y="62.51" width="17.4" height="24.69" rx="1.12"/><rect class="c-face" x="79.15" y="63.95" width="17.4" height="24.69" rx="1.12"/><rect class="ix-red" x="80.28" y="64.59" width="5.61" height="2.89" rx="0.6"/><rect class="c-face" x="79.15" y="72.77" width="17.4" height="24.69" rx="1.12"/><rect class="ix-black" x="80.28" y="73.41" width="5.61" height="2.89" rx="0.6"/><rect class="c-face" x="79.15" y="81.59" width="17.4" height="24.69" rx="1.12"/><rect class="ix-red" x="80.28" y="82.23" width="5.61" height="2.89" rx="0.6"/><rect class="c-face" x="79.15" y="90.41" width="17.4" height="24.69" rx="1.12"/><rect class="ix-black" x="80.28" y="91.05" width="5.61" height="2.89" rx="0.6"/><rect class="c-face" x="79.15" y="99.23" width="17.4" height="24.69" rx="1.12"/><rect class="ix-red" x="80.28" y="99.87" width="5.61" height="2.89" rx="0.6"/><rect class="c-face" x="79.15" y="108.05" width="17.4" height="24.69" rx="1.12"/><rect class="ix-black" x="80.28" y="108.69" width="5.61" height="2.89" rx="0.6"/><rect class="c-back" x="97.11" y="61.07" width="17.4" height="24.69" rx="1.12"/><rect class="c-back" x="97.11" y="62.51" width="17.4" height="24.69" rx="1.12"/><rect class="c-back" x="97.11" y="63.95" width="17.4" height="24.69" rx="1.12"/><rect class="c-back" x="97.11" y="65.4" width="17.4" height="24.69" rx="1.12"/><rect class="c-face" x="97.11" y="66.84" width="17.4" height="24.69" rx="1.12"/><rect class="ix-black" x="98.24" y="67.48" width="5.61" height="2.89" rx="0.6"/><rect class="c-face" x="97.11" y="75.66" width="17.4" height="24.69" rx="1.12"/><rect class="ix-red" x="98.24" y="76.3" width="5.61" height="2.89" rx="0.6"/><rect class="c-face" x="97.11" y="84.48" width="17.4" height="24.69" rx="1.12"/><rect class="ix-black" x="98.24" y="85.12" width="5.61" height="2.89" rx="0.6"/><rect class="c-face" x="97.11" y="93.3" width="17.4" height="24.69" rx="1.12"/><rect class="ix-red" x="98.24" y="93.94" width="5.61" height="2.89" rx="0.6"/><rect class="c-back" x="115.07" y="61.07" width="17.4" height="24.69" rx="1.12"/><rect class="c-back" x="115.07" y="62.51" width="17.4" height="24.69" rx="1.12"/><rect class="c-back" x="115.07" y="63.95" width="17.4" height="24.69" rx="1.12"/><rect class="c-face" x="115.07" y="65.4" width="17.4" height="24.69" rx="1.12"/><rect class="ix-red" x="116.19" y="66.04" width="5.61" height="2.89" rx="0.6"/><rect class="c-face" x="115.07" y="74.21" width="17.4" height="24.69" rx="1.12"/><rect class="ix-black" x="116.19" y="74.86" width="5.61" height="2.89" rx="0.6"/><rect class="c-face" x="115.07" y="83.03" width="17.4" height="24.69" rx="1.12"/><rect class="ix-red" x="116.19" y="83.67" width="5.61" height="2.89" rx="0.6"/><rect class="c-face" x="115.07" y="91.85" width="17.4" height="24.69" rx="1.12"/><rect class="ix-black" x="116.19" y="92.49" width="5.61" height="2.89" rx="0.6"/><rect class="c-face" x="115.07" y="100.67" width="17.4" height="24.69" rx="1.12"/><rect class="ix-red" x="116.19" y="101.31" width="5.61" height="2.89" rx="0.6"/><rect class="c-face" x="115.07" y="109.49" width="17.4" height="24.69" rx="1.12"/><rect class="ix-black" x="116.19" y="110.13" width="5.61" height="2.89" rx="0.6"/><rect class="c-face" x="115.07" y="118.31" width="17.4" height="24.69" rx="1.12"/><rect class="ix-red" x="116.19" y="118.95" width="5.61" height="2.89" rx="0.6"/><rect class="c-face" x="115.07" y="127.13" width="17.4" height="24.69" rx="1.12"/><rect class="ix-black" x="116.19" y="127.77" width="5.61" height="2.89" rx="0.6"/><rect class="c-face" x="115.07" y="135.95" width="17.4" height="24.69" rx="1.12"/><rect class="ix-red" x="116.19" y="136.59" width="5.61" height="2.89" rx="0.6"/><rect class="c-back" x="133.03" y="61.07" width="17.4" height="24.69" rx="1.12"/><rect class="c-back" x="133.03" y="62.51" width="17.4" height="24.69" rx="1.12"/><rect class="c-back" x="133.03" y="63.95" width="17.4" height="24.69" rx="1.12"/><rect class="c-back" x="133.03" y="65.4" width="17.4" height="24.69" rx="1.12"/><rect class="c-face" x="133.03" y="66.84" width="17.4" height="24.69" rx="1.12"/><rect class="ix-black" x="134.15" y="67.48" width="5.61" height="2.89" rx="0.6"/><rect class="c-face" x="133.03" y="75.66" width="17.4" height="24.69" rx="1.12"/><rect class="ix-red" x="134.15" y="76.3" width="5.61" height="2.89" rx="0.6"/><rect class="c-face" x="133.03" y="84.48" width="17.4" height="24.69" rx="1.12"/><rect class="ix-black" x="134.15" y="85.12" width="5.61" height="2.89" rx="0.6"/><rect class="c-back" x="150.99" y="61.07" width="17.4" height="24.69" rx="1.12"/><rect class="c-face" x="150.99" y="62.51" width="17.4" height="24.69" rx="1.12"/><rect class="ix-red" x="152.11" y="63.15" width="5.61" height="2.89" rx="0.6"/><rect class="c-face" x="150.99" y="71.33" width="17.4" height="24.69" rx="1.12"/><rect class="ix-black" x="152.11" y="71.97" width="5.61" height="2.89" rx="0.6"/><rect class="c-face" x="150.99" y="80.15" width="17.4" height="24.69" rx="1.12"/><rect class="ix-red" x="152.11" y="80.79" width="5.61" height="2.89" rx="0.6"/><rect class="c-face" x="150.99" y="88.97" width="17.4" height="24.69" rx="1.12"/><rect class="ix-black" x="152.11" y="89.61" width="5.61" height="2.89" rx="0.6"/><rect class="c-face" x="150.99" y="97.78" width="17.4" height="24.69" rx="1.12"/><rect class="ix-red" x="152.11" y="98.43" width="5.61" height="2.89" rx="0.6"/><rect class="c-face" x="150.99" y="106.6" width="17.4" height="24.69" rx="1.12"/><rect class="ix-black" x="152.11" y="107.25" width="5.61" height="2.89" rx="0.6"/><rect class="c-face" x="150.99" y="115.42" width="17.4" height="24.69" rx="1.12"/><rect class="ix-red" x="152.11" y="116.06" width="5.61" height="2.89" rx="0.6"/><rect class="c-face" x="150.99" y="124.24" width="17.4" height="24.69" rx="1.12"/><rect class="ix-black" x="152.11" y="124.88" width="5.61" height="2.89" rx="0.6"/><rect class="c-face" x="150.99" y="133.06" width="17.4" height="24.69" rx="1.12"/><rect class="ix-red" x="152.11" y="133.7" width="5.61" height="2.89" rx="0.6"/><rect class="c-face" x="150.99" y="141.88" width="17.4" height="24.69" rx="1.12"/><rect class="ix-black" x="152.11" y="142.52" width="5.61" height="2.89" rx="0.6"/><rect class="c-face" x="150.99" y="150.7" width="17.4" height="24.69" rx="1.12"/><rect class="ix-red" x="152.11" y="151.34" width="5.61" height="2.89" rx="0.6"/><rect class="c-face" x="150.99" y="159.52" width="17.4" height="24.69" rx="1.12"/><rect class="ix-black" x="152.11" y="160.16" width="5.61" height="2.89" rx="0.6"/><rect class="c-face" x="150.99" y="168.34" width="17.4" height="24.69" rx="1.12"/><rect class="ix-red" x="152.11" y="168.98" width="5.61" height="2.89" rx="0.6"/><rect class="c-face" x="150.99" y="177.15" width="17.4" height="24.69" rx="1.12"/><rect class="ix-black" x="152.11" y="177.8" width="5.61" height="2.89" rx="0.6"/><rect class="c-face" x="150.99" y="185.97" width="17.4" height="24.69" rx="1.12"/><rect class="ix-red" x="152.11" y="186.61" width="5.61" height="2.89" rx="0.6"/><rect class="c-back" x="168.95" y="61.07" width="17.4" height="24.69" rx="1.12"/><rect class="c-back" x="168.95" y="62.51" width="17.4" height="24.69" rx="1.12"/><rect class="c-back" x="168.95" y="63.95" width="17.4" height="24.69" rx="1.12"/><rect class="c-back" x="168.95" y="65.4" width="17.4" height="24.69" rx="1.12"/><rect class="c-face" x="168.95" y="66.84" width="17.4" height="24.69" rx="1.12"/><rect class="ix-black" x="170.07" y="67.48" width="5.61" height="2.89" rx="0.6"/><rect class="c-face" x="168.95" y="75.66" width="17.4" height="24.69" rx="1.12"/><rect class="ix-red" x="170.07" y="76.3" width="5.61" height="2.89" rx="0.6"/><rect class="c-face" x="168.95" y="84.48" width="17.4" height="24.69" rx="1.12"/><rect class="ix-black" x="170.07" y="85.12" width="5.61" height="2.89" rx="0.6"/><rect class="c-face" x="168.95" y="93.3" width="17.4" height="24.69" rx="1.12"/><rect class="ix-red" x="170.07" y="93.94" width="5.61" height="2.89" rx="0.6"/><rect class="c-face" x="168.95" y="102.11" width="17.4" height="24.69" rx="1.12"/><rect class="ix-black" x="170.07" y="102.76" width="5.61" height="2.89" rx="0.6"/></g><rect class="chrome" x="7" y="7" width="179.99" height="27.69"/><text class="chrome-label" x="96.99" y="23.85" text-anchor="middle">Header</text></svg>
